<svg id="visual" viewBox="0 0 1804 746" width="1804" height="746" xmlns="http://www.w3.org/2000/svg" xmlns:xlink="http://www.w3.org/1999/xlink" version="1.1"><rect x="0" y="0" width="1804" height="746" fill="#fce3dc"></rect><defs><linearGradient id="grad1_0" x1="58.6%" y1="100%" x2="100%" y2="0%"><stop offset="1.6353887399463822%" stop-color="#ffd15e" stop-opacity="1"></stop><stop offset="98.36461126005362%" stop-color="#ffd15e" stop-opacity="1"></stop></linearGradient></defs><defs><linearGradient id="grad1_1" x1="58.6%" y1="100%" x2="100%" y2="0%"><stop offset="1.6353887399463822%" stop-color="#ffd15e" stop-opacity="1"></stop><stop offset="98.36461126005362%" stop-color="#ffd3a3" stop-opacity="1"></stop></linearGradient></defs><defs><linearGradient id="grad1_2" x1="58.6%" y1="100%" x2="100%" y2="0%"><stop offset="1.6353887399463822%" stop-color="#fce3dc" stop-opacity="1"></stop><stop offset="98.36461126005362%" stop-color="#ffd3a3" stop-opacity="1"></stop></linearGradient></defs><defs><linearGradient id="grad2_0" x1="0%" y1="100%" x2="41.4%" y2="0%"><stop offset="1.6353887399463822%" stop-color="#ffd15e" stop-opacity="1"></stop><stop offset="98.36461126005362%" stop-color="#ffd15e" stop-opacity="1"></stop></linearGradient></defs><defs><linearGradient id="grad2_1" x1="0%" y1="100%" x2="41.4%" y2="0%"><stop offset="1.6353887399463822%" stop-color="#ffd3a3" stop-opacity="1"></stop><stop offset="98.36461126005362%" stop-color="#ffd15e" stop-opacity="1"></stop></linearGradient></defs><defs><linearGradient id="grad2_2" x1="0%" y1="100%" x2="41.4%" y2="0%"><stop offset="1.6353887399463822%" stop-color="#ffd3a3" stop-opacity="1"></stop><stop offset="98.36461126005362%" stop-color="#fce3dc" stop-opacity="1"></stop></linearGradient></defs><g transform="translate(1804, 746)"><path d="M-746 0C-742.5 -49.7 -739.1 -99.3 -662.8 -116.9C-586.5 -134.4 -437.4 -119.8 -432.3 -157.3C-427.1 -194.9 -565.8 -284.5 -622.7 -359.5C-679.5 -434.5 -654.4 -494.8 -571.5 -479.5C-488.5 -464.2 -347.7 -373.4 -273.2 -325.6C-198.6 -277.8 -190.3 -273 -204 -353.3C-217.7 -433.6 -253.5 -599 -241.5 -663.4C-229.4 -727.9 -169.6 -691.4 -121.4 -688.4C-73.2 -685.3 -36.6 -715.7 0 -746L0 0Z" fill="#ffdac2"></path><path d="M-497.3 0C-495 -33.1 -492.7 -66.2 -441.9 -77.9C-391 -89.6 -291.6 -79.9 -288.2 -104.9C-284.7 -129.9 -377.2 -189.7 -415.1 -239.7C-453 -289.7 -436.3 -329.9 -381 -319.7C-325.7 -309.5 -231.8 -248.9 -182.1 -217C-132.4 -185.2 -126.9 -182 -136 -235.6C-145.1 -289.1 -169 -399.3 -161 -442.3C-153 -485.2 -113.1 -461 -80.9 -458.9C-48.8 -456.9 -24.4 -477.1 0 -497.3L0 0Z" fill="#ffd081"></path><path d="M-248.7 0C-247.5 -16.6 -246.4 -33.1 -220.9 -39C-195.5 -44.8 -145.8 -39.9 -144.1 -52.4C-142.4 -65 -188.6 -94.8 -207.6 -119.8C-226.5 -144.8 -218.1 -164.9 -190.5 -159.8C-162.8 -154.7 -115.9 -124.5 -91.1 -108.5C-66.2 -92.6 -63.4 -91 -68 -117.8C-72.6 -144.5 -84.5 -199.7 -80.5 -221.1C-76.5 -242.6 -56.5 -230.5 -40.5 -229.5C-24.4 -228.4 -12.2 -238.6 0 -248.7L0 0Z" fill="#ffd15e"></path></g><g transform="translate(0, 0)"><path d="M746 0C686.4 30.5 626.8 61 639.1 112.7C651.5 164.3 735.9 237.1 686.9 250C637.9 262.9 455.5 215.9 410.5 237C365.5 258.1 457.8 347.3 478 401.1C498.2 454.9 446.2 473.3 389.5 464.2C332.8 455.2 271.3 418.6 233 403.6C194.7 388.5 179.4 394.8 170 467C160.5 539.2 156.9 677.2 129.5 734.7C102.2 792.1 51.1 769.1 0 746L0 0Z" fill="#ffdac2"></path><path d="M497.3 0C457.6 20.3 417.8 40.7 426.1 75.1C434.3 109.6 490.6 158.1 457.9 166.7C425.3 175.3 303.7 143.9 273.7 158C243.6 172.1 305.2 231.5 318.7 267.4C332.1 303.3 297.5 315.5 259.7 309.5C221.9 303.4 180.9 279.1 155.3 269C129.8 259 119.6 263.2 113.3 311.4C107 359.5 104.6 451.5 86.4 489.8C68.1 528.1 34.1 512.7 0 497.3L0 0Z" fill="#ffd081"></path><path d="M248.7 0C228.8 10.2 208.9 20.3 213 37.6C217.2 54.8 245.3 79 229 83.3C212.6 87.6 151.8 72 136.8 79C121.8 86 152.6 115.8 159.3 133.7C166.1 151.6 148.7 157.8 129.8 154.7C110.9 151.7 90.4 139.5 77.7 134.5C64.9 129.5 59.8 131.6 56.7 155.7C53.5 179.7 52.3 225.7 43.2 244.9C34.1 264 17 256.4 0 248.7L0 0Z" fill="#ffd15e"></path></g></svg>