<svg id="visual" viewBox="0 0 2000 160" width="2000" height="160" xmlns="http://www.w3.org/2000/svg" xmlns:xlink="http://www.w3.org/1999/xlink" version="1.1"><g transform="translate(-57.997635245294234 129.87645950269768)"><path d="M44.8 -41.8C85.7 -54.1 165.4 -97.8 217.7 -96.1C270.1 -94.3 295 -47.2 276.1 -10.9C257.2 25.3 194.4 50.7 141.1 50.7C87.8 50.7 43.9 25.3 21.9 50.8C0 76.3 0 152.7 -16.2 180.7C-32.3 208.7 -64.7 188.3 -94.5 167.4C-124.4 146.5 -151.8 125 -161.8 97C-171.8 69 -164.4 34.5 -150 8.3C-135.6 -17.8 -114.1 -35.7 -104.4 -64.1C-94.6 -92.5 -96.6 -131.6 -81.1 -134C-65.7 -136.4 -32.8 -102.2 -15.4 -75.5C2 -48.8 4 -29.6 44.8 -41.8" fill="#60bfae"></path></g></svg>