<svg id="visual" viewBox="0 0 2000 60" width="2000" height="60" xmlns="http://www.w3.org/2000/svg" xmlns:xlink="http://www.w3.org/1999/xlink" version="1.1"><rect x="0" y="0" width="2000" height="60" fill="#FFFFFF"></rect><path d="M0 13L47.7 11.2C95.3 9.3 190.7 5.7 285.8 9.7C381 13.7 476 25.3 571.2 27.3C666.3 29.3 761.7 21.7 857 23.7C952.3 25.7 1047.7 37.3 1143 42.2C1238.3 47 1333.7 45 1428.8 42C1524 39 1619 35 1714.2 29.5C1809.3 24 1904.7 17 1952.3 13.5L2000 10L2000 0L1952.3 0C1904.7 0 1809.3 0 1714.2 0C1619 0 1524 0 1428.8 0C1333.7 0 1238.3 0 1143 0C1047.7 0 952.3 0 857 0C761.7 0 666.3 0 571.2 0C476 0 381 0 285.8 0C190.7 0 95.3 0 47.7 0L0 0Z" fill="#ffe2db" stroke-linecap="round" stroke-linejoin="miter"></path></svg>