<svg id="visual" viewBox="0 0 1478.4 546.6" width="1478.4" height="546.6" xmlns="http://www.w3.org/2000/svg" xmlns:xlink="http://www.w3.org/1999/xlink" version="1.1"><rect x="0" y="0" width="1478.4" height="546.6" fill="#ffd15e"></rect><path d="M601 0L604.8 22.8C608.7 45.7 616.3 91.3 660.5 136.8C704.7 182.3 785.3 227.7 820.7 273.2C856 318.7 846 364.3 849.3 410C852.7 455.7 869.3 501.3 877.7 524.2L886 547L0 547L0 524.2C0 501.3 0 455.7 0 410C0 364.3 0 318.7 0 273.2C0 227.7 0 182.3 0 136.8C0 91.3 0 45.7 0 22.8L0 0Z" fill="#ffe2db" stroke-linecap="round" stroke-linejoin="miter"></path></svg>