<svg id="visual" viewBox="0 0 1478.4 546.6" width="1478.4" height="546.6" xmlns="http://www.w3.org/2000/svg" xmlns:xlink="http://www.w3.org/1999/xlink" version="1.1"><rect x="0" y="0" width="1478.4" height="546.6" fill="#9ecaff"></rect><path d="M768 0L757.2 10.2C746.3 20.3 724.7 40.7 742.5 60.8C760.3 81 817.7 101 822.3 121.2C827 141.3 779 161.7 768.7 182C758.3 202.3 785.7 222.7 782 243C778.3 263.3 743.7 283.7 709.7 303.8C675.7 324 642.3 344 639.8 364.2C637.3 384.3 665.7 404.7 712 425C758.3 445.3 822.7 465.7 824.8 486C827 506.3 767 526.7 737 536.8L707 547L0 547L0 536.8C0 526.7 0 506.3 0 486C0 465.7 0 445.3 0 425C0 404.7 0 384.3 0 364.2C0 344 0 324 0 303.8C0 283.7 0 263.3 0 243C0 222.7 0 202.3 0 182C0 161.7 0 141.3 0 121.2C0 101 0 81 0 60.8C0 40.7 0 20.3 0 10.2L0 0Z" fill="#60bfae" stroke-linecap="round" stroke-linejoin="miter"></path></svg>